<?xml version="1.0" encoding="UTF-8"?>
<!DOCTYPE svg PUBLIC "-//W3C//DTD SVG 1.1//EN" "http://www.w3.org/Graphics/SVG/1.1/DTD/svg11.dtd">
<!-- Creator: CorelDRAW -->
<svg xmlns="http://www.w3.org/2000/svg" xml:space="preserve" width="6.82666in" height="6.82666in" style="shape-rendering:geometricPrecision; text-rendering:geometricPrecision; image-rendering:optimizeQuality; fill-rule:evenodd; clip-rule:evenodd"
viewBox="0 0 6.82666 6.82666"
 xmlns:xlink="http://www.w3.org/1999/xlink">
 <defs>
  <style type="text/css">
   <![CDATA[
    .fil2 {fill:none}
    .fil6 {fill:#212121}
    .fil1 {fill:#26C6DA}
    .fil7 {fill:#34526B}
    .fil3 {fill:#527490}
    .fil0 {fill:#80DEEA}
    .fil4 {fill:#B2C5D4}
    .fil5 {fill:#FAFAFA;fill-rule:nonzero}
   ]]>
  </style>
   <clipPath id="id0">
    <path d="M3.41333 -3.93701e-006c1.88513,0 3.41333,1.5282 3.41333,3.41333 0,1.88513 -1.5282,3.41333 -3.41333,3.41333 -1.88513,0 -3.41333,-1.5282 -3.41333,-3.41333 0,-1.88513 1.5282,-3.41333 3.41333,-3.41333z"/>
   </clipPath>
 </defs>
 <g id="Layer_x0020_1">
  <metadata id="CorelCorpID_0Corel-Layer"/>
  <path class="fil0" d="M3.41333 -3.93701e-006c1.88513,0 3.41333,1.5282 3.41333,3.41333 0,1.88513 -1.5282,3.41333 -3.41333,3.41333 -1.88513,0 -3.41333,-1.5282 -3.41333,-3.41333 0,-1.88513 1.5282,-3.41333 3.41333,-3.41333z"/>
  <g style="clip-path:url(#id0)">
   <g id="_637659400">
    <g>
     <polygon id="_4421292561" class="fil1" points="2.65559,1.99792 6.44185,5.78419 6.4464,5.78894 6.45103,5.7941 6.45573,5.79967 6.46049,5.80569 6.46531,5.81215 6.47017,5.81909 6.47507,5.82653 6.47999,5.83448 6.48493,5.84296 6.48988,5.85198 6.49483,5.86159 6.49977,5.87178 6.50469,5.88257 6.50958,5.894 6.51444,5.90607 6.51924,5.9188 6.524,5.93222 6.52869,5.94635 2.74242,2.16007 2.73773,2.14595 2.73298,2.13253 2.72817,2.1198 2.72331,2.10773 2.71842,2.0963 2.7135,2.0855 2.70856,2.07531 2.70361,2.06571 2.69866,2.05669 2.69372,2.0482 2.6888,2.04026 2.6839,2.03282 2.67904,2.02588 2.67422,2.01941 2.66946,2.0134 2.66476,2.00783 2.66013,2.00267 "/>
     <polygon id="_442129184" class="fil1" points="2.74242,2.16007 6.52869,5.94635 6.53294,5.95997 6.53715,5.97428 6.5413,5.98929 6.54538,6.00502 6.54941,6.02148 6.55335,6.0387 6.55722,6.05668 6.56099,6.07546 6.56467,6.09504 6.56824,6.11543 6.57171,6.13668 6.57506,6.15878 6.57829,6.18175 6.58138,6.20562 6.58434,6.2304 6.58715,6.25611 6.58981,6.28276 6.59232,6.31038 6.59466,6.33897 6.59682,6.36857 6.59881,6.39918 6.60061,6.43082 6.60221,6.46352 6.60362,6.49728 6.60481,6.53213 6.6058,6.56808 6.60656,6.60516 6.6071,6.64337 6.6074,6.68274 6.60745,6.72328 6.60726,6.76501 6.60681,6.80795 2.82055,3.02168 2.821,2.97874 2.82119,2.93701 2.82113,2.89646 2.82083,2.8571 2.8203,2.81889 2.81953,2.78181 2.81855,2.74586 2.81735,2.71101 2.81594,2.67724 2.81434,2.64455 2.81254,2.61291 2.81056,2.5823 2.80839,2.5527 2.80605,2.52411 2.80355,2.49649 2.80089,2.46983 2.79807,2.44413 2.79511,2.41935 2.79202,2.39548 2.7888,2.3725 2.78544,2.35041 2.78198,2.32916 2.7784,2.30876 2.77472,2.28919 2.77095,2.27041 2.76708,2.25243 2.76314,2.23521 2.75911,2.21875 2.75503,2.20302 2.75088,2.18801 2.74667,2.1737 "/>
     <polygon id="_442129784" class="fil1" points="2.82055,3.02168 6.60681,6.80795 6.61244,6.83726 6.61881,6.86536 6.6259,6.8923 6.63372,6.91809 6.64225,6.9428 6.6515,6.96644 6.66146,6.98906 6.67212,7.01069 6.68348,7.03137 6.69552,7.05112 6.70826,7.06999 6.72168,7.08802 6.73578,7.10523 6.75055,7.12167 6.76598,7.13736 2.97971,3.35109 2.96428,3.33539 2.94951,3.31896 2.93541,3.30174 2.922,3.28372 2.90926,3.26485 2.89721,3.24509 2.88585,3.22442 2.87519,3.20279 2.86523,3.18017 2.85598,3.15653 2.84745,3.13182 2.83963,3.10602 2.83254,3.07909 2.82618,3.05099 "/>
     <polygon id="_442129616" class="fil1" points="5.16115,4.32017 8.94741,8.10644 8.97784,8.1387 9.00607,8.1717 9.03197,8.20544 5.2457,4.41917 5.2198,4.38543 5.19157,4.35243 "/>
     <polygon id="_442129904" class="fil1" points="5.2457,4.41917 9.03197,8.20544 9.04696,8.22796 9.0575,8.24778 9.06384,8.26503 9.06623,8.27984 9.06493,8.29234 9.06019,8.30265 9.05226,8.31091 9.04139,8.31722 9.02783,8.32174 9.01185,8.32457 8.99369,8.32586 8.97359,8.32572 8.95182,8.32428 8.92863,8.32167 8.90426,8.31801 8.87898,8.31344 8.85303,8.30808 8.82666,8.30205 8.80013,8.29549 8.7737,8.28851 8.7476,8.28126 8.7221,8.27384 8.69745,8.2664 8.67389,8.25906 8.65169,8.25194 8.63109,8.24517 8.61235,8.23887 8.59571,8.23319 8.58144,8.22824 8.56978,8.22414 8.56098,8.22103 8.5553,8.21903 4.76903,4.43276 4.77471,4.43476 4.78351,4.43787 4.79517,4.44196 4.80944,4.44692 4.82608,4.4526 4.84482,4.45889 4.86543,4.46567 4.88763,4.47278 4.91118,4.48013 4.93583,4.48757 4.96133,4.49498 4.98743,4.50224 5.01387,4.50922 5.04039,4.51578 5.06676,4.52181 5.09271,4.52717 5.11799,4.53174 5.14236,4.5354 5.16555,4.53801 5.18732,4.53944 5.20742,4.53959 5.22558,4.5383 5.24157,4.53547 5.25512,4.53095 5.26599,4.52463 5.27392,4.51638 5.27866,4.50607 5.27996,4.49357 5.27757,4.47876 5.27123,4.4615 5.26069,4.44169 "/>
     <polygon id="_442129952" class="fil1" points="4.76903,4.43276 8.5553,8.21903 8.54762,8.21637 8.54006,8.21376 8.53259,8.21119 8.52524,8.20867 8.51798,8.2062 8.51083,8.20379 8.50378,8.20143 8.49683,8.19915 8.48997,8.19692 8.48321,8.19477 8.47655,8.1927 8.46997,8.1907 8.46349,8.18879 8.4571,8.18696 8.4508,8.18522 8.44458,8.18358 8.43845,8.18203 8.4324,8.18059 8.42644,8.17924 8.42056,8.17801 8.41476,8.17689 8.40903,8.17589 8.40339,8.17501 8.39781,8.17425 8.39231,8.17361 8.38689,8.17311 8.38154,8.17274 8.37626,8.17252 8.37104,8.17243 8.36589,8.17249 8.36081,8.1727 8.35579,8.17306 4.56952,4.38679 4.57454,4.38643 4.57963,4.38622 4.58477,4.38616 4.58999,4.38624 4.59527,4.38647 4.60062,4.38684 4.60605,4.38734 4.61155,4.38798 4.61712,4.38874 4.62276,4.38962 4.62849,4.39062 4.63429,4.39174 4.64017,4.39297 4.64613,4.39431 4.65218,4.39576 4.65831,4.39731 4.66453,4.39895 4.67083,4.40069 4.67722,4.40252 4.6837,4.40443 4.69028,4.40643 4.69694,4.4085 4.7037,4.41065 4.71056,4.41287 4.71751,4.41516 4.72457,4.41752 4.73172,4.41993 4.73897,4.42239 4.74633,4.42492 4.75379,4.42749 4.76135,4.4301 "/>
     <polygon id="_442130120" class="fil1" points="1.98,2.50688 5.76627,6.29315 5.76188,6.28919 5.75725,6.28548 5.75239,6.28202 5.74728,6.27881 5.74193,6.27587 5.73633,6.2732 1.95006,2.48693 1.95566,2.4896 1.96101,2.49254 1.96612,2.49574 1.97098,2.4992 1.97561,2.50292 "/>
     <polygon id="_442129520" class="fil1" points="3.19787,4.59595 6.98414,8.38222 6.97444,8.38273 6.9648,8.38323 6.95522,8.3837 6.9457,8.38416 6.93624,8.3846 6.92683,8.38502 6.9175,8.38543 6.90823,8.38581 6.89902,8.38617 6.88989,8.38652 6.88081,8.38685 6.87181,8.38716 6.86289,8.38745 6.85402,8.38772 6.84524,8.38797 6.83652,8.38821 6.82788,8.38842 6.81932,8.38862 6.81083,8.3888 6.80242,8.38895 6.79409,8.38909 6.78584,8.38921 6.77767,8.38931 6.76959,8.38939 6.76158,8.38945 6.75367,8.38949 6.74583,8.38951 6.73809,8.38951 6.73043,8.38949 6.72286,8.38945 6.71538,8.3894 6.70799,8.38932 2.92172,4.60305 2.92911,4.60313 2.93659,4.60318 2.94416,4.60322 2.95182,4.60324 2.95956,4.60324 2.9674,4.60322 2.97531,4.60318 2.98332,4.60311 2.99141,4.60304 2.99957,4.60294 3.00782,4.60282 3.01615,4.60268 3.02456,4.60252 3.03305,4.60235 3.04161,4.60215 3.05026,4.60194 3.05897,4.6017 3.06776,4.60145 3.07662,4.60118 3.08555,4.60089 3.09455,4.60058 3.10362,4.60025 3.11276,4.5999 3.12196,4.59954 3.13123,4.59915 3.14057,4.59875 3.14997,4.59833 3.15943,4.59789 3.16895,4.59743 3.17853,4.59696 3.18817,4.59646 "/>
     <polygon id="_442129688" class="fil1" points="2.92172,4.60305 6.70799,8.38932 6.71014,8.3917 6.71243,8.39421 6.71486,8.39683 6.71741,8.39955 6.7201,8.40237 6.7229,8.4053 6.72582,8.40831 6.72885,8.41142 2.94258,4.62515 2.93955,4.62204 2.93663,4.61902 2.93383,4.6161 2.93115,4.61328 2.92859,4.61056 2.92617,4.60794 2.92387,4.60543 "/>
     <polygon id="_442130144" class="fil1" points="2.94258,4.62515 6.72885,8.41142 6.7401,8.42265 6.75132,8.43337 6.76253,8.4436 2.97626,4.65733 2.96506,4.64709 2.95383,4.63637 "/>
     <polygon id="_442130552" class="fil1" points="3.30952,4.87208 7.09579,8.65835 7.10256,8.66501 7.10772,8.67128 7.11131,8.67716 7.11336,8.68265 7.1139,8.68778 7.11294,8.69253 7.11054,8.69691 7.1067,8.70094 7.10147,8.70461 7.09488,8.70793 7.08694,8.71091 7.0777,8.71356 7.06719,8.71587 7.05543,8.71785 3.26916,4.93158 3.28092,4.92959 3.29144,4.92728 3.30068,4.92464 3.30861,4.92166 3.3152,4.91834 3.32044,4.91467 3.32427,4.91064 3.32668,4.90626 3.32763,4.9015 3.32709,4.89638 3.32505,4.89089 3.32146,4.88501 3.31629,4.87874 "/>
     <polygon id="_442130624" class="fil1" points="3.26916,4.93158 7.05543,8.71785 7.05191,8.71829 7.04796,8.71865 7.04359,8.71893 7.03883,8.71912 7.0337,8.71924 7.02823,8.71929 7.02244,8.71927 7.01636,8.71918 3.23009,4.93291 3.23618,4.933 3.24196,4.93302 3.24743,4.93297 3.25256,4.93285 3.25732,4.93265 3.26169,4.93238 3.26564,4.93202 "/>
     <polygon id="_442130816" class="fil1" points="3.23009,4.93291 7.01636,8.71918 7.00194,8.71881 6.98802,8.71832 6.97457,8.7177 6.96156,8.71694 6.94895,8.71607 6.93672,8.71507 6.92483,8.71394 6.91326,8.71271 6.90196,8.71135 6.89091,8.70989 6.88008,8.70831 6.86944,8.70663 6.85896,8.70484 6.8486,8.70295 6.83833,8.70096 6.82812,8.69888 6.81795,8.6967 6.80777,8.69443 6.79756,8.69207 6.78729,8.68962 6.77693,8.68709 6.76644,8.68448 6.75579,8.68179 6.74495,8.67903 6.73389,8.67619 6.72259,8.67328 6.711,8.67031 6.69909,8.66726 6.68685,8.66416 6.67422,8.661 6.66119,8.65777 6.64772,8.6545 2.86145,4.86822 2.87492,4.8715 2.88795,4.87472 2.90058,4.87789 2.91283,4.88099 2.92473,4.88404 2.93632,4.88701 2.94763,4.88992 2.95868,4.89276 2.96952,4.89552 2.98017,4.89821 2.99066,4.90082 3.00102,4.90335 3.0113,4.9058 3.0215,4.90816 3.03168,4.91043 3.04185,4.91261 3.05206,4.91469 3.06233,4.91668 3.07269,4.91857 3.08318,4.92036 3.09381,4.92204 3.10465,4.92361 3.11569,4.92508 3.12699,4.92644 3.13856,4.92767 3.15045,4.9288 3.16269,4.9298 3.17529,4.93067 3.18831,4.93143 3.20176,4.93205 3.21568,4.93254 "/>
     <polygon id="_442130408" class="fil1" points="2.86145,4.86822 6.64772,8.6545 6.64015,8.65267 6.63257,8.65084 6.625,8.64902 6.61746,8.64719 6.60994,8.64537 6.60246,8.64356 6.59504,8.64176 6.58767,8.63996 6.58037,8.63817 6.57314,8.6364 6.56601,8.63465 6.55897,8.63291 6.55205,8.63119 6.54524,8.62948 6.53855,8.6278 6.53201,8.62614 6.52561,8.62451 6.51937,8.6229 6.5133,8.62132 6.5074,8.61978 6.50169,8.61826 6.49617,8.61678 6.49087,8.61533 6.48578,8.61392 6.48091,8.61255 6.47628,8.61121 6.47189,8.60993 6.46776,8.60868 6.4639,8.60748 6.46031,8.60632 6.45701,8.60522 6.454,8.60417 2.66773,4.81789 2.67074,4.81895 2.67404,4.82005 2.67763,4.8212 2.6815,4.82241 2.68563,4.82365 2.69001,4.82494 2.69464,4.82628 2.69951,4.82765 2.7046,4.82906 2.70991,4.8305 2.71542,4.83199 2.72113,4.8335 2.72703,4.83505 2.7331,4.83663 2.73934,4.83824 2.74574,4.83987 2.75228,4.84153 2.75897,4.84321 2.76578,4.84491 2.7727,4.84663 2.77974,4.84837 2.78687,4.85013 2.7941,4.8519 2.8014,4.85369 2.80877,4.85548 2.8162,4.85729 2.82367,4.8591 2.83119,4.86092 2.83874,4.86274 2.8463,4.86457 2.85388,4.8664 "/>
     <polygon id="_442130432" class="fil1" points="2.37719,4.53517 6.16346,8.32144 6.16203,8.32153 2.37576,4.53526 "/>
     <polygon id="_442130744" class="fil1" points="2.35557,4.53639 6.14183,8.32267 6.13222,8.32314 6.12225,8.32358 6.11197,8.32398 6.10141,8.32434 6.0906,8.32465 6.07957,8.3249 6.06836,8.32509 6.057,8.3252 6.04551,8.32523 6.03394,8.32517 6.02232,8.32502 6.01068,8.32476 5.99904,8.3244 5.98745,8.32391 5.97594,8.32331 5.96453,8.32257 5.95327,8.3217 5.94218,8.32068 5.93129,8.3195 5.92064,8.31817 5.91026,8.31667 5.90019,8.31499 5.89045,8.31313 5.88108,8.31108 5.87211,8.30884 5.86357,8.30639 5.8555,8.30373 5.84793,8.30085 5.84089,8.29775 5.83441,8.29442 5.82852,8.29084 5.82326,8.28702 2.037,4.50075 2.04225,4.50457 2.04814,4.50815 2.05462,4.51148 2.06166,4.51458 2.06923,4.51746 2.0773,4.52012 2.08584,4.52257 2.09481,4.52481 2.10418,4.52686 2.11392,4.52872 2.124,4.53039 2.13437,4.5319 2.14502,4.53323 2.15591,4.53441 2.167,4.53543 2.17826,4.5363 2.18967,4.53704 2.20119,4.53764 2.21278,4.53813 2.22441,4.53849 2.23606,4.53874 2.24768,4.5389 2.25924,4.53896 2.27073,4.53893 2.28209,4.53881 2.2933,4.53863 2.30433,4.53838 2.31514,4.53807 2.3257,4.53771 2.33598,4.53731 2.34595,4.53687 "/>
     <polygon id="_442130480" class="fil1" points="2.42432,4.73804 6.21059,8.52431 6.20478,8.52114 6.19914,8.51791 6.19365,8.51461 6.18835,8.51125 6.18321,8.50781 6.17827,8.50432 6.17352,8.50075 6.16898,8.49712 6.16464,8.49341 2.37837,4.70714 2.38271,4.71085 2.38726,4.71448 2.392,4.71805 2.39694,4.72154 2.40208,4.72498 2.40739,4.72834 2.41287,4.73164 2.41852,4.73487 "/>
     <polygon id="_442130168" class="fil1" points="2.37576,4.53526 6.16203,8.32153 6.16048,8.32161 2.37422,4.53534 "/>
     <polygon id="_442130792" class="fil1" points="2.37422,4.53534 6.16048,8.32161 6.16043,8.32163 2.37416,4.53536 "/>
     <polygon id="_442131488" class="fil1" points="2.37416,4.53536 6.16043,8.32163 6.16002,8.32165 2.37375,4.53538 "/>
     <polygon id="_442131320" class="fil1" points="2.37375,4.53538 6.16002,8.32165 6.14183,8.32267 2.35557,4.53639 "/>
     <polygon id="_442131584" class="fil1" points="2.66773,4.81789 6.454,8.60417 6.45239,8.60361 6.45057,8.60301 6.44856,8.60238 6.44636,8.60172 6.44397,8.60102 6.4414,8.60029 6.43867,8.59953 6.43577,8.59874 6.43271,8.59791 6.42951,8.59706 6.42617,8.59617 6.42269,8.59526 6.41909,8.59432 6.41537,8.59335 6.41153,8.59236 6.40759,8.59134 2.62133,4.80507 2.62526,4.80609 2.6291,4.80708 2.63282,4.80805 2.63643,4.80899 2.6399,4.8099 2.64324,4.81078 2.64644,4.81164 2.6495,4.81246 2.6524,4.81326 2.65513,4.81402 2.6577,4.81475 2.66009,4.81544 2.6623,4.81611 2.66431,4.81674 2.66612,4.81733 "/>
     <polygon id="_442131608" class="fil1" points="2.62133,4.80507 6.40759,8.59134 6.40228,8.58997 6.39682,8.58856 6.39123,8.58709 6.3855,8.5856 6.37965,8.58406 6.3737,8.58247 6.36764,8.58084 6.36148,8.57917 6.35525,8.57744 6.34894,8.57568 6.34257,8.57387 6.33615,8.57201 6.32968,8.57011 6.32317,8.56816 6.31664,8.56616 6.31009,8.56411 6.30354,8.56201 6.29698,8.55987 6.29043,8.55767 6.28391,8.55542 6.27741,8.55312 6.27096,8.55077 6.26455,8.54837 6.2582,8.54591 6.25191,8.54341 6.24571,8.54084 6.23959,8.53822 6.23356,8.53556 6.22764,8.53283 6.22183,8.53005 6.21614,8.52721 6.21059,8.52431 2.42432,4.73804 2.42987,4.74094 2.43556,4.74378 2.44137,4.74656 2.44729,4.74928 2.45332,4.75195 2.45944,4.75457 2.46565,4.75713 2.47193,4.75964 2.47828,4.7621 2.48469,4.7645 2.49115,4.76685 2.49764,4.76915 2.50417,4.7714 2.51071,4.77359 2.51727,4.77574 2.52382,4.77784 2.53037,4.77989 2.53691,4.78189 2.54341,4.78384 2.54988,4.78574 2.55631,4.7876 2.56268,4.78941 2.56898,4.79117 2.57522,4.79289 2.58137,4.79457 2.58743,4.7962 2.59339,4.79778 2.59923,4.79933 2.60496,4.80082 2.61056,4.80228 2.61602,4.8037 "/>
     <polygon id="_442131272" class="fil1" points="1.95006,2.48693 5.73633,6.2732 5.73267,6.27165 5.72891,6.2702 5.72504,6.26885 5.72106,6.26761 5.71698,6.26647 5.7128,6.26543 5.7085,6.2645 5.70411,6.26368 1.91784,2.47741 1.92224,2.47823 1.92653,2.47916 1.93071,2.4802 1.9348,2.48134 1.93877,2.48258 1.94264,2.48393 1.9464,2.48538 "/>
     <polygon id="_442131008" class="fil1" points="1.56337,2.20327 5.34964,5.98954 5.34796,5.98915 5.34629,5.98873 5.34464,5.98827 5.343,5.98778 5.34137,5.98726 5.33976,5.9867 5.33817,5.98611 5.33659,5.98549 1.55033,2.19922 1.55191,2.19984 1.5535,2.20043 1.55511,2.20099 1.55673,2.20151 1.55837,2.202 1.56002,2.20246 1.56169,2.20288 "/>
     <polygon id="_442131416" class="fil1" points="1.68263,2.37272 5.46889,6.159 5.4632,6.15487 5.45759,6.15068 5.45208,6.14644 5.44666,6.14214 5.44135,6.13779 5.43613,6.13339 5.43103,6.12894 5.42605,6.12444 5.42118,6.1199 1.63491,2.33363 1.63978,2.33817 1.64476,2.34267 1.64987,2.34712 1.65508,2.35152 1.66039,2.35587 1.66581,2.36017 1.67133,2.36441 1.67693,2.36859 "/>
     <polygon id="_442131440" class="fil1" points="1.91784,2.47741 5.70411,6.26368 5.69932,6.26268 5.69379,6.26121 5.68757,6.2593 5.68072,6.25699 5.6733,6.25431 5.66537,6.25129 5.65698,6.24796 5.64819,6.24436 5.63907,6.24051 5.62967,6.23645 5.62004,6.23222 5.61024,6.22784 5.60034,6.22334 5.59039,6.21876 5.58045,6.21414 5.57057,6.20949 5.56082,6.20486 5.55125,6.20028 5.54193,6.19577 5.53289,6.19138 5.52422,6.18713 5.51596,6.18305 5.50817,6.17918 5.50091,6.17555 5.49424,6.17219 5.48822,6.16914 5.4829,6.16642 5.47835,6.16407 5.47461,6.16212 5.47175,6.1606 5.46982,6.15955 5.46889,6.159 1.68263,2.37272 1.68356,2.37328 1.68548,2.37433 1.68834,2.37585 1.69208,2.3778 1.69663,2.38015 1.70196,2.38287 1.70798,2.38592 1.71465,2.38928 1.72191,2.39291 1.72969,2.39678 1.73795,2.40085 1.74663,2.40511 1.75566,2.4095 1.76498,2.414 1.77456,2.41859 1.7843,2.42322 1.79418,2.42787 1.80412,2.43249 1.81407,2.43707 1.82398,2.44157 1.83377,2.44595 1.8434,2.45018 1.8528,2.45424 1.86193,2.45809 1.87071,2.46169 1.8791,2.46502 1.88703,2.46804 1.89445,2.47072 1.9013,2.47303 1.90752,2.47494 1.91305,2.47641 "/>
     <polygon id="_442131368" class="fil1" points="4.56952,4.38679 8.35579,8.17306 8.32431,8.18309 8.29126,8.19293 8.25674,8.20259 8.22081,8.21206 8.18358,8.22133 8.14511,8.23041 8.1055,8.23928 8.06481,8.24795 8.02315,8.25641 7.98059,8.26465 7.93721,8.27267 7.89309,8.28047 7.84833,8.28804 7.803,8.29537 7.75717,8.30246 7.71095,8.30932 7.66441,8.31592 7.61763,8.32228 7.57069,8.32837 7.52369,8.3342 7.47669,8.33977 7.42979,8.34507 7.38306,8.3501 7.3366,8.35484 7.29047,8.3593 7.24478,8.36348 7.19958,8.36736 7.15498,8.37094 7.11106,8.37423 7.06789,8.3772 7.02555,8.37987 6.98414,8.38222 3.19787,4.59595 3.23928,4.5936 3.28162,4.59093 3.32479,4.58796 3.36872,4.58467 3.41331,4.58109 3.45851,4.57721 3.5042,4.57303 3.55033,4.56857 3.5968,4.56383 3.64352,4.5588 3.69043,4.5535 3.73742,4.54793 3.78443,4.5421 3.83136,4.536 3.87814,4.52965 3.92469,4.52305 3.97091,4.51619 4.01673,4.5091 4.06206,4.50177 4.10683,4.4942 4.15094,4.4864 4.19432,4.47838 4.23688,4.47014 4.27855,4.46168 4.31923,4.45301 4.35884,4.44414 4.39731,4.43506 4.43455,4.42578 4.47047,4.41631 4.50499,4.40666 4.53804,4.39681 "/>
    </g>
    <path id="_637659760" class="fil1" d="M2.60556 1.9626c0.0250354,0.0117677 0.0872205,0.0430236 0.136866,0.197476 0.0455748,0.141772 0.0842913,0.397055 0.078126,0.861606 0.0560984,0.319138 0.238484,0.426783 0.518323,0.517445 0.216268,0.0700709 0.485492,0.14798 0.569819,0.171354 0.390799,0.108256 1.07359,0.344724 1.33702,0.708693 0.184508,0.254953 -0.433602,0.0285079 -0.476677,0.0135866 -0.0824291,-0.0285472 -0.146311,-0.0506732 -0.199504,-0.0459685 -0.327205,0.107846 -0.93515,0.18578 -1.37165,0.209157 -0.103764,0.00556299 -0.197839,0.00803543 -0.27615,0.00709843 0.00553937,0.00620866 0.0126339,0.0137008 0.0208583,0.0220984 0.120063,0.122571 0.236898,0.153961 0.348476,0.232417 0.0581614,0.0408819 0.0441181,0.0642913 -0.0219016,0.0740157 -0.00876772,0.00129528 -0.0224764,0.00165748 -0.039063,0.00132677 -0.156579,-0.00312598 -0.222512,-0.0294449 -0.368642,-0.0646811 -0.0807677,-0.0194724 -0.163224,-0.0393622 -0.193724,-0.0503307 -0.00801181,-0.00288976 -0.0251299,-0.0073189 -0.0464016,-0.0128228 -0.0558268,-0.014437 -0.138512,-0.0358386 -0.197004,-0.0670315 -0.0627362,-0.0334646 -0.0998661,-0.0777323 -0.0705669,-0.137248l0.0175276 -0.0490709 0.00590945 -0.0165472 -0.00142913 8.66142e-005 -0.00154724 8.26772e-005 -5.90551e-005 1.5748e-005 -0.000405512 2.3622e-005 -0.018185 0.00101181c-0.100646,0.00516535 -0.265969,0.0064685 -0.318571,-0.0356457l-0.00681496 -0.00696457c-0.113181,-0.152866 -0.102598,-0.336614 0.0554213,-0.224335 0.0102756,0.00730315 0.0217165,0.0154291 0.049437,0.0134961 0.00848425,-0.0325866 0.0219252,-0.0905197 0.0174567,-0.115528 -0.000255906,-0.0014252 -0.000570866,-0.00274409 -0.000944882,-0.00394488 -0.00084252,-0.00174803 -0.00168504,-0.00349213 -0.00251969,-0.00523622 -0.000944882,-0.00196457 -0.00188583,-0.0039252 -0.0028189,-0.00588583 -0.195217,-0.408882 -0.216898,-0.713441 -0.194165,-0.954547 0.0259843,-0.275634 0.11002,-0.468343 0.0591732,-0.639185 -0.0106772,-0.0328622 -0.0306614,-0.058185 -0.0611575,-0.071689 -0.00962205,-0.00425984 -0.0203543,-0.00747638 -0.0322244,-0.00951969 -0.0468898,-0.00808661 -0.230795,-0.101524 -0.235213,-0.104685 -0.0611614,-0.0437559 -0.108406,-0.0973701 -0.115276,-0.153701 -0.00105906,-0.00354331 -0.00255118,-0.00898425 -0.00398031,-0.015752 -0.0045,-0.000992126 -0.00885827,-0.00235433 -0.0130433,-0.00405118 -0.00803937,-0.0429016 -0.0105236,-0.123488 0.0773346,-0.143173 0.00384252,0.00266535 0.00744882,0.00565354 0.0107756,0.00892126 0.00614567,-0.00117717 0.0127402,-0.00204331 0.019815,-0.00257087 0.0776575,-0.0139488 0.193244,-0.0562953 0.299343,-0.0951693 0.221488,-0.0811417 0.41978,-0.111913 0.647961,-0.00462992z"/>
   </g>
  </g>
  <path class="fil2" d="M3.41333 -3.93701e-006c1.88513,0 3.41333,1.5282 3.41333,3.41333 0,1.88513 -1.5282,3.41333 -3.41333,3.41333 -1.88513,0 -3.41333,-1.5282 -3.41333,-3.41333 0,-1.88513 1.5282,-3.41333 3.41333,-3.41333z"/>
  <path class="fil3" d="M2.60556 1.9626c0.0250354,0.0117677 0.0872205,0.0430236 0.136866,0.197476 0.0455748,0.141772 0.0842913,0.397055 0.078126,0.861606 0.0560984,0.319138 0.238484,0.426783 0.518323,0.517445 0.216268,0.0700709 0.485492,0.14798 0.569819,0.171354 0.390799,0.108256 1.07359,0.344724 1.33702,0.708693 0.184508,0.254953 -0.433602,0.0285079 -0.476677,0.0135866 -0.0824291,-0.0285472 -0.146311,-0.0506732 -0.199504,-0.0459685 -0.404988,0.133484 -1.24005,0.221138 -1.6478,0.216256 0.00553937,0.00620866 0.0126339,0.0137008 0.0208583,0.0220984 0.120063,0.122571 0.236898,0.153961 0.348476,0.232417 0.0581614,0.0408819 0.0441181,0.0642913 -0.0219016,0.0740157 -0.00876772,0.00129528 -0.0224764,0.00165748 -0.039063,0.00132677 -0.156579,-0.00312598 -0.222512,-0.0294449 -0.368642,-0.0646811 -0.0807677,-0.0194724 -0.163224,-0.0393622 -0.193724,-0.0503307 -0.00801181,-0.00288976 -0.0251299,-0.0073189 -0.0464016,-0.0128228 -0.0558268,-0.014437 -0.138512,-0.0358386 -0.197004,-0.0670315 -0.0627362,-0.0334646 -0.0998661,-0.0777323 -0.0705669,-0.137248l0.0175276 -0.0490709 0.00590945 -0.0165472c-0.0067874,0.000417323 -0.0140236,0.000830709 -0.021626,0.00122047 -0.100646,0.00516535 -0.265969,0.0064685 -0.318571,-0.0356457l-0.00681496 -0.00696457c-0.113181,-0.152866 -0.102598,-0.336614 0.0554213,-0.224335 0.0102756,0.00730315 0.0217165,0.0154291 0.049437,0.0134961 0.00897244,-0.0344449 0.0234724,-0.0972126 0.0165118,-0.119472 -0.426937,-0.884098 -0.0446063,-1.28322 -0.140331,-1.60485 -0.0106772,-0.0328622 -0.0306614,-0.058185 -0.0611575,-0.071689 -0.00962205,-0.00425984 -0.0203543,-0.00747638 -0.0322244,-0.00951969 -0.0468898,-0.00808661 -0.230795,-0.101524 -0.235213,-0.104685 -0.0611614,-0.0437559 -0.108406,-0.0973701 -0.115276,-0.153701 -0.00755118,-0.0252795 -0.0371417,-0.147102 0.0909016,-0.156626 0.0776575,-0.0139488 0.193244,-0.0562953 0.299343,-0.0951693 0.221488,-0.0811417 0.41978,-0.111913 0.647961,-0.00462992z"/>
  <path class="fil4" d="M1.95205 3.1978c-0.0227323,0.241106 -0.00105118,0.545665 0.194165,0.954547l0.00144488 0.00217717c0.000456693,0.00124016 0.000913386,0.00247638 0.00137402,0.00370866 0.000834646,0.00174409 0.00167717,0.00348819 0.00251969,0.00523622 0.000374016,0.00120079 0.000688976,0.00251969 0.000944882,0.00394488 0.0589291,0.153945 0.141445,0.258091 0.221256,0.367965 0.000133858,-7.87402e-006 0.000267717,-1.5748e-005 0.000405512,-2.3622e-005l0.0748543 -0.0213898c0.292807,-0.0836575 0.118224,-0.293331 -0.0177677,-0.486465 -0.245386,-0.3485 0.0142441,-0.681256 -0.0683346,-0.854764 -0.0537677,-0.112976 -0.319252,-0.111031 -0.410862,0.025063z"/>
  <path class="fil5" d="M1.65884 2.12894c-0.00325984,0 -0.00590157,0.00264567 -0.00590157,0.00590551 0,0.00325591 0.00264173,0.00590157 0.00590157,0.00590157l0.299177 -0.000996063c0.00325984,0 0.00590157,-0.00264173 0.00590157,-0.00590157 0,-0.00325984 -0.00264173,-0.00590157 -0.00590157,-0.00590157l-0.299177 0.000992126z"/>
  <path class="fil5" d="M1.65352 2.1551c-0.0026811,-0.00185433 -0.0063622,-0.00117717 -0.00821654,0.00150394 -0.00185433,0.00268504 -0.0011811,0.00636614 0.00150394,0.00822047l0.210969 0.145276c0.0026811,0.00185039 0.0063622,0.00117717 0.00821654,-0.00150394 0.00185433,-0.00268504 0.0011811,-0.00636614 -0.00150394,-0.00822047l-0.210969 -0.145276z"/>
  <path class="fil5" d="M1.6598 2.14298c-0.00311417,-0.000956693 -0.0064252,0.000795276 -0.00738189,0.00391339 -0.00096063,0.00311417 0.000795276,0.0064252 0.00390945,0.00738189l0.250024 0.0772795c0.00311811,0.000956693 0.00642913,-0.000795276 0.00738583,-0.00391339 0.000956693,-0.00311417 -0.000795276,-0.0064252 -0.00391339,-0.00738189l-0.250024 -0.0772795z"/>
  <path class="fil6" d="M2.25924 2.10353c0.0352362,0 0.0637992,0.028563 0.0637992,0.0637992 0,0.0352323 -0.028563,0.0637953 -0.0637992,0.0637953 -0.0352362,0 -0.0637992,-0.028563 -0.0637992,-0.0637953 0,-0.0352362 0.028563,-0.0637992 0.0637992,-0.0637992z"/>
  <path class="fil6" d="M1.55033 2.19922c-0.00803937,-0.0429016 -0.0105236,-0.123488 0.0773346,-0.143173 0.0213031,0.0147756 0.0352559,0.0394055 0.0352559,0.0672953 0,0.0452047 -0.0366496,0.0818504 -0.0818543,0.0818504 -0.0108701,0 -0.021248,-0.00212205 -0.0307362,-0.00597244z"/>
  <path class="fil7" d="M2.35376 4.60079c-0.0292992,0.0595157 0.00783071,0.103783 0.0705669,0.137248 0.0584921,0.0311929 0.141177,0.0525945 0.197004,0.0670315 0.0212717,0.00550394 0.0383898,0.00993307 0.0464016,0.0128228 0.0305,0.0109685 0.112957,0.0308583 0.193724,0.0503307 0.14613,0.0352362 0.212063,0.0615551 0.368642,0.0646811 0.0165866,0.000330709 0.0302953,-3.14961e-005 0.039063,-0.00132677 0.0660197,-0.00972441 0.080063,-0.0331339 0.0219016,-0.0740157 -0.111579,-0.0784567 -0.228413,-0.109846 -0.348476,-0.232417 -0.00822441,-0.00839764 -0.0153189,-0.0158898 -0.0208583,-0.0220984 0.078311,0.000937008 0.172386,-0.00153543 0.27615,-0.00709843 0.0814606,-0.0349173 0.144087,-0.14485 0.103563,-0.221626 -0.0469213,-0.0889055 -0.232134,-0.0172874 -0.232134,-0.0172874 0,0 -0.310543,0.0929173 -0.474193,0.0622008 -0.000814961,-0.000149606 -0.00161811,-0.00030315 -0.00242126,-0.000464567 -0.113512,-0.0223583 -0.184205,0.0624843 -0.216661,0.116051 -8.66142e-005,0.000145669 -0.000177165,0.000291339 -0.00026378,0.000437008 0.000476378,-2.75591e-005 0.000952756,-5.90551e-005 0.00142913,-8.66142e-005l-0.00590945 0.0165472 -0.0175276 0.0490709z"/>
  <path class="fil7" d="M2.0856 4.26945c-0.15802,-0.11228 -0.168602,0.0714685 -0.0554213,0.224335l0.00681496 0.00696457c0.0526024,0.0421142 0.217925,0.040811 0.318571,0.0356457 0.00633465,-0.000322835 0.0124094,-0.000665354 0.018185,-0.00101181 -0.079811,-0.109874 -0.162327,-0.21402 -0.221256,-0.367965 0.0044685,0.0250079 -0.00897244,0.0829409 -0.0174567,0.115528 -0.0277205,0.00193307 -0.0391614,-0.00619291 -0.049437,-0.0134961z"/>
 </g>
</svg>
