<?xml version="1.0" encoding="utf-8"?>
<!-- Generator: Adobe Illustrator 24.3.0, SVG Export Plug-In . SVG Version: 6.00 Build 0)  -->
<svg version="1.1" id="Layer_1" xmlns="http://www.w3.org/2000/svg" xmlns:xlink="http://www.w3.org/1999/xlink" x="0px" y="0px"
	 viewBox="0 0 80 80" enable-background="new 0 0 80 80" xml:space="preserve">
<g>
	<path fill="#525C6B" d="M55.998,26.034c-2.477,0-4.698-0.666-6.049-1.777c2.447-1.576,4.118-3.512,5.487-5.1
		c1.115-1.291,2.078-2.408,2.78-2.408c0.528,0,1.239,0.701,2.056,2.025c0.971,1.576,1.665,3.332,2.065,5.225
		C61.03,25.261,58.647,26.034,55.998,26.034C55.999,26.034,55.999,26.034,55.998,26.034z"/>
	<path fill="#525C6B" d="M24.001,26.034c-2.648,0-5.032-0.774-6.34-2.035c0.401-1.893,1.096-3.648,2.066-5.225
		c0.828-1.344,1.52-2.025,2.056-2.025c0.702,0,1.665,1.117,2.78,2.408c1.369,1.588,3.039,3.524,5.486,5.1
		C28.7,25.368,26.479,26.034,24.001,26.034L24.001,26.034z"/>
	<path fill="#7A8E9B" d="M63.15,24.233c-0.392-2.065-1.131-4.053-2.239-5.852c-1.051-1.705-1.89-2.383-2.694-2.383
		c-2.207,0-4.152,5.096-9.473,8.109c-2.233,1.266-5.053,2.168-8.744,2.168s-6.512-0.902-8.744-2.168
		c-5.32-3.014-7.267-8.109-9.473-8.109c-0.805,0-1.644,0.678-2.694,2.383c-1.109,1.799-1.848,3.787-2.239,5.852
		c-0.22,1.16-0.333,2.342-0.333,3.529v4.223v5.145c0,18.242,10.514,26.871,23.483,26.871c12.969,0,23.483-8.629,23.483-26.871
		v-5.145v-4.223C63.483,26.575,63.37,25.393,63.15,24.233z M20.366,19.169c0.898-1.457,1.361-1.648,1.421-1.668
		c0.412,0.066,1.492,1.316,2.208,2.146c1.16,1.346,2.658,3.082,4.718,4.596c-1.223,0.654-2.908,1.041-4.712,1.041
		c-2.261,0-4.291-0.584-5.511-1.555C18.884,22.083,19.513,20.552,20.366,19.169z M56.005,19.647c0.716-0.83,1.795-2.08,2.207-2.146
		c0.061,0.02,0.524,0.211,1.422,1.668c0.853,1.383,1.482,2.914,1.875,4.561c-1.219,0.971-3.25,1.555-5.511,1.555
		c-1.804,0-3.488-0.387-4.712-1.041C53.346,22.729,54.844,20.993,56.005,19.647z"/>
	<path fill="#E2E2E2" d="M35.969,34.253c0,3.471-2.462,6.285-5.5,6.285c-3.037,0-5.5-2.815-5.5-6.285c0-3.473,2.463-4.715,5.5-4.715
		C33.507,29.538,35.969,30.78,35.969,34.253z"/>
	<path fill="#E2E2E2" d="M55.03,34.253c0,3.471-2.462,6.285-5.5,6.285c-3.037,0-5.5-2.815-5.5-6.285c0-3.473,2.463-4.715,5.5-4.715
		C52.568,29.538,55.03,30.78,55.03,34.253z"/>
	<path fill="#525C6B" d="M46.761,58.054c-0.161-0.383-0.603-0.561-0.983-0.4c-0.946,0.4-2.032,0.393-2.98-0.023
		c-0.874-0.383-1.524-1.066-1.831-1.926c-0.145-0.402-0.217-0.824-0.217-1.256V49.79c0-0.414-0.336-0.75-0.75-0.75
		c-0.414,0-0.75,0.336-0.75,0.75v4.658c0,0.432-0.073,0.854-0.217,1.256c-0.307,0.859-0.958,1.543-1.832,1.926
		c-0.947,0.416-2.033,0.424-2.979,0.023c-0.381-0.16-0.821,0.019-0.982,0.4c-0.161,0.381,0.017,0.82,0.398,0.982
		c1.324,0.561,2.843,0.549,4.166-0.031c0.93-0.408,1.685-1.059,2.196-1.875c0.511,0.816,1.267,1.467,2.195,1.873
		c0.674,0.297,1.398,0.445,2.123,0.445c0.697,0,1.394-0.139,2.043-0.412C46.743,58.874,46.922,58.435,46.761,58.054z"/>
	<path fill="#F87670" d="M40,44.522c2.762,0,5,0.115,5,2.74c0,2.129-3.295,3.389-4.535,3.787c-0.305,0.1-0.625,0.1-0.93,0
		C38.294,50.651,35,49.392,35,47.263C35,44.638,37.238,44.522,40,44.522z"/>
	<circle fill="#525C6B" cx="30.469" cy="35.37" r="1.5"/>
	<circle fill="#525C6B" cx="49.53" cy="35.37" r="1.5"/>
	<path fill="#C6C6C6" d="M25.018,51.026c-0.251,0-0.497-0.127-0.639-0.358c-0.218-0.354-0.107-0.814,0.245-1.031
		c3.946-2.428,8.199-1.162,8.379-1.105c0.395,0.121,0.616,0.539,0.495,0.936c-0.121,0.395-0.541,0.619-0.935,0.498
		c-0.039-0.012-3.8-1.115-7.153,0.949C25.288,50.989,25.152,51.026,25.018,51.026z"/>
	<path fill="#C6C6C6" d="M32.281,47.155c-0.138,0-0.276-0.039-0.401-0.117c-0.073-0.047-3.723-2.264-8.499-0.774
		c-0.398,0.125-0.816-0.098-0.939-0.492c-0.124-0.395,0.097-0.816,0.492-0.939c5.494-1.715,9.58,0.83,9.751,0.939
		c0.35,0.223,0.452,0.686,0.23,1.035C32.771,47.032,32.529,47.155,32.281,47.155z"/>
	<path fill="#C6C6C6" d="M27.812,56.28c-0.143,0-0.287-0.041-0.415-0.127c-0.345-0.231-0.438-0.695-0.208-1.039
		c2.559-3.84,6.461-4.016,6.625-4.021c0.417-0.012,0.762,0.309,0.775,0.723c0.015,0.414-0.308,0.76-0.721,0.775
		c-0.138,0.006-3.314,0.178-5.432,3.355C28.293,56.163,28.055,56.28,27.812,56.28z"/>
	<path fill="#C6C6C6" d="M54.981,51.026c-0.134,0-0.27-0.037-0.393-0.111c-3.354-2.062-7.115-0.961-7.152-0.949
		c-0.394,0.121-0.814-0.104-0.936-0.498c-0.121-0.396,0.101-0.814,0.496-0.936c0.179-0.057,4.433-1.322,8.378,1.105
		c0.353,0.217,0.463,0.678,0.246,1.031C55.479,50.899,55.233,51.026,54.981,51.026z"/>
	<path fill="#C6C6C6" d="M47.718,47.155c-0.247,0-0.49-0.123-0.633-0.348c-0.223-0.35-0.119-0.812,0.229-1.035
		c0.172-0.109,4.262-2.652,9.752-0.939c0.395,0.123,0.615,0.545,0.492,0.939c-0.123,0.395-0.539,0.617-0.94,0.492
		c-4.833-1.506-8.463,0.75-8.499,0.774C47.995,47.116,47.856,47.155,47.718,47.155z"/>
	<path fill="#C6C6C6" d="M52.187,56.28c-0.242,0-0.479-0.117-0.624-0.334c-2.119-3.18-5.298-3.35-5.432-3.355
		c-0.413-0.018-0.735-0.365-0.72-0.777c0.017-0.414,0.361-0.752,0.774-0.721c0.164,0.006,4.065,0.182,6.625,4.021
		c0.229,0.344,0.137,0.809-0.208,1.039C52.475,56.239,52.33,56.28,52.187,56.28z"/>
</g>
</svg>
